<svg width="17" height="22" viewBox="0 0 17 22" fill="none" xmlns="http://www.w3.org/2000/svg">
<path fill-rule="evenodd" clip-rule="evenodd" d="M4.00625 1.8023C4.0182 1.81028 4.03019 1.81827 4.04222 1.82629L14.591 8.85878C14.8962 9.06222 15.1792 9.25086 15.3965 9.42614C15.6234 9.60908 15.8908 9.86275 16.0447 10.2339C16.2481 10.7244 16.2481 11.2756 16.0447 11.7661C15.8908 12.1372 15.6234 12.3909 15.3965 12.5738C15.1792 12.7491 14.8962 12.9377 14.591 13.1412L4.00628 20.1977C3.63319 20.4464 3.29772 20.6701 3.01305 20.8244C2.72818 20.9788 2.33717 21.1552 1.8808 21.1279C1.29705 21.0931 0.757793 20.8045 0.404984 20.3381C0.12916 19.9735 0.0590496 19.5503 0.0294864 19.2276C-5.5423e-05 18.9052 -2.82425e-05 18.502 1.91746e-06 18.0536L3.82481e-06 3.98962C3.82481e-06 3.97516 2.87113e-06 3.96075 1.91746e-06 3.94638C-2.82425e-05 3.49798 -5.5423e-05 3.09479 0.0294864 2.77236C0.0590496 2.44971 0.12916 2.02651 0.404984 1.6619C0.757793 1.19552 1.29705 0.906923 1.8808 0.872069C2.33717 0.84482 2.72818 1.02123 3.01305 1.17561C3.29771 1.32988 3.63317 1.55355 4.00625 1.8023Z" fill="white"/>
</svg>
